<svg width="40" height="39" viewBox="0 0 40 39" fill="none" xmlns="http://www.w3.org/2000/svg">
<path d="M29.8573 5.02412C29.3792 3.05265 26.5753 3.05265 26.0973 5.02412L24.7819 10.4487C24.6112 11.1526 24.0616 11.7022 23.3578 11.8729L17.9331 13.1883C15.9617 13.6663 15.9617 16.4702 17.9331 16.9482L23.3578 18.2636C24.0616 18.4343 24.6112 18.9839 24.7819 19.6877L26.0973 25.1124C26.5753 27.0838 29.3792 27.0838 29.8573 25.1124L31.1727 19.6877C31.3433 18.9839 31.8929 18.4343 32.5968 18.2636L38.0214 16.9482C39.9929 16.4702 39.9929 13.6663 38.0214 13.1883L32.5968 11.8729C31.8929 11.7022 31.3433 11.1526 31.1727 10.4487L29.8573 5.02412Z" fill="#BADFFF"/>
<path d="M14.066 23.9554C13.7718 22.7422 12.0464 22.7422 11.7522 23.9554L10.9427 27.2937C10.8377 27.7268 10.4995 28.065 10.0663 28.17L6.72809 28.9795C5.51488 29.2737 5.51488 30.9992 6.72809 31.2933L10.0663 32.1028C10.4995 32.2078 10.8377 32.546 10.9427 32.9792L11.7522 36.3174C12.0464 37.5306 13.7718 37.5306 14.066 36.3174L14.8755 32.9792C14.9805 32.546 15.3187 32.2078 15.7519 32.1028L19.0901 31.2933C20.3033 30.9992 20.3033 29.2737 19.0901 28.9795L15.7519 28.17C15.3187 28.065 14.9805 27.7268 14.8755 27.2937L14.066 23.9554Z" fill="#BADFFF"/>
<path d="M8.35014 4.80742C8.15708 4.01125 7.02474 4.01125 6.83168 4.80742L6.30047 6.99813C6.23154 7.28239 6.0096 7.50433 5.72534 7.57325L3.53463 8.10447C2.73846 8.29753 2.73846 9.42986 3.53463 9.62292L5.72534 10.1541C6.0096 10.2231 6.23154 10.445 6.30047 10.7293L6.83168 12.92C7.02474 13.7161 8.15708 13.7162 8.35014 12.92L8.88135 10.7293C8.95028 10.445 9.17222 10.2231 9.45648 10.1541L11.6472 9.62292C12.4434 9.42986 12.4434 8.29753 11.6472 8.10447L9.45648 7.57326C9.17222 7.50433 8.95028 7.28239 8.88135 6.99813L8.35014 4.80742Z" fill="#BADFFF"/>
<path fill-rule="evenodd" clip-rule="evenodd" d="M7.59091 5.19609L8.02448 6.9841C8.19778 7.6988 8.75581 8.25683 9.47051 8.43013L11.2585 8.8637L9.47051 9.29727C8.7558 9.47057 8.19778 10.0286 8.02448 10.7433L7.59091 12.5313L7.15734 10.7433C6.98404 10.0286 6.42601 9.47057 5.71131 9.29727L3.9233 8.8637L5.71131 8.43013C6.42601 8.25683 6.98404 7.6988 7.15734 6.9841L7.59091 5.19609ZM6.72322 4.22795C6.94386 3.31804 8.23796 3.31804 8.4586 4.22795L9.0657 6.73162C9.14448 7.05648 9.39812 7.31013 9.72299 7.38891L12.2267 7.99601C13.1366 8.21665 13.1366 9.51075 12.2267 9.73139L9.72299 10.3385C9.39812 10.4173 9.14448 10.6709 9.0657 10.9958L8.4586 13.4994C8.23796 14.4094 6.94386 14.4094 6.72322 13.4994L6.11612 10.9958C6.03734 10.6709 5.7837 10.4173 5.45883 10.3385L2.95516 9.73139C2.04525 9.51075 2.04525 8.21665 2.95516 7.99601L5.45883 7.38891C5.7837 7.31013 6.03734 7.05648 6.11612 6.73162L6.72322 4.22795Z" fill="#BADFFF"/>
<path d="M28.8636 39.0001C29.8427 39.0001 30.6364 38.2064 30.6364 37.2273C30.6364 36.2483 29.8427 35.4546 28.8636 35.4546C27.8846 35.4546 27.0909 36.2483 27.0909 37.2273C27.0909 38.2064 27.8846 39.0001 28.8636 39.0001Z" fill="#BADFFF"/>
<path d="M37.7273 31.9092C38.7063 31.9092 39.5 31.1155 39.5 30.1364C39.5 29.1574 38.7063 28.3637 37.7273 28.3637C36.7482 28.3637 35.9545 29.1574 35.9545 30.1364C35.9545 31.1155 36.7482 31.9092 37.7273 31.9092Z" fill="#BADFFF"/>
<path d="M18.2273 3.54552C19.2063 3.54552 20 2.75184 20 1.77279C20 0.793738 19.2063 6.09924e-05 18.2273 6.10352e-05C17.2482 6.1078e-05 16.4545 0.793738 16.4545 1.77279C16.4545 2.75184 17.2482 3.54552 18.2273 3.54552Z" fill="#BADFFF"/>
<path d="M2.27273 23.0455C3.25178 23.0455 4.04546 22.2518 4.04546 21.2728C4.04546 20.2937 3.25178 19.5001 2.27273 19.5001C1.29368 19.5001 0.5 20.2937 0.5 21.2728C0.5 22.2518 1.29368 23.0455 2.27273 23.0455Z" fill="#BADFFF"/>
</svg>
